<mxfile host="app.diagrams.net" modified="2023-07-08T06:30:28.543Z" agent="Mozilla/5.0 (Windows NT 10.0; Win64; x64) AppleWebKit/537.36 (KHTML, like Gecko) Chrome/114.0.0.0 Safari/537.36" etag="z67Kqtty4n7N-bAteLud" version="21.6.1" type="github">
  <diagram id="C5RBs43oDa-KdzZeNtuy" name="Page-1">
    <mxGraphModel dx="1228" dy="875" grid="1" gridSize="10" guides="1" tooltips="1" connect="1" arrows="1" fold="1" page="1" pageScale="1" pageWidth="4681" pageHeight="3300" math="0" shadow="0">
      <root>
        <mxCell id="WIyWlLk6GJQsqaUBKTNV-0" />
        <mxCell id="WIyWlLk6GJQsqaUBKTNV-1" parent="WIyWlLk6GJQsqaUBKTNV-0" />
        <mxCell id="2eAAJyF8k7LBZb5_VXcL-2" style="edgeStyle=orthogonalEdgeStyle;rounded=0;orthogonalLoop=1;jettySize=auto;html=1;exitX=1;exitY=0.5;exitDx=0;exitDy=0;strokeColor=#82b366;fillColor=#d5e8d4;" edge="1" parent="WIyWlLk6GJQsqaUBKTNV-1" source="2eAAJyF8k7LBZb5_VXcL-0" target="2eAAJyF8k7LBZb5_VXcL-1">
          <mxGeometry relative="1" as="geometry" />
        </mxCell>
        <mxCell id="2eAAJyF8k7LBZb5_VXcL-6" style="edgeStyle=orthogonalEdgeStyle;rounded=0;orthogonalLoop=1;jettySize=auto;html=1;exitX=0.5;exitY=1;exitDx=0;exitDy=0;entryX=0;entryY=0.5;entryDx=0;entryDy=0;strokeColor=#6c8ebf;fillColor=#dae8fc;" edge="1" parent="WIyWlLk6GJQsqaUBKTNV-1" source="2eAAJyF8k7LBZb5_VXcL-0" target="2eAAJyF8k7LBZb5_VXcL-5">
          <mxGeometry relative="1" as="geometry" />
        </mxCell>
        <mxCell id="2eAAJyF8k7LBZb5_VXcL-11" style="edgeStyle=orthogonalEdgeStyle;rounded=0;orthogonalLoop=1;jettySize=auto;html=1;exitX=0.5;exitY=0;exitDx=0;exitDy=0;entryX=0.5;entryY=0;entryDx=0;entryDy=0;" edge="1" parent="WIyWlLk6GJQsqaUBKTNV-1" source="2eAAJyF8k7LBZb5_VXcL-0" target="2eAAJyF8k7LBZb5_VXcL-10">
          <mxGeometry relative="1" as="geometry">
            <Array as="points">
              <mxPoint x="350" y="60" />
              <mxPoint x="860" y="60" />
            </Array>
          </mxGeometry>
        </mxCell>
        <mxCell id="2eAAJyF8k7LBZb5_VXcL-0" value="user sequence(X)" style="rounded=1;whiteSpace=wrap;html=1;" vertex="1" parent="WIyWlLk6GJQsqaUBKTNV-1">
          <mxGeometry x="290" y="120" width="120" height="60" as="geometry" />
        </mxCell>
        <mxCell id="2eAAJyF8k7LBZb5_VXcL-14" style="edgeStyle=orthogonalEdgeStyle;rounded=0;orthogonalLoop=1;jettySize=auto;html=1;exitX=1;exitY=0.5;exitDx=0;exitDy=0;entryX=0;entryY=0.5;entryDx=0;entryDy=0;strokeColor=#82b366;fillColor=#d5e8d4;" edge="1" parent="WIyWlLk6GJQsqaUBKTNV-1" source="2eAAJyF8k7LBZb5_VXcL-1" target="2eAAJyF8k7LBZb5_VXcL-3">
          <mxGeometry relative="1" as="geometry" />
        </mxCell>
        <mxCell id="2eAAJyF8k7LBZb5_VXcL-1" value="linear+softmax" style="rounded=1;whiteSpace=wrap;html=1;strokeColor=#82b366;fillColor=#d5e8d4;" vertex="1" parent="WIyWlLk6GJQsqaUBKTNV-1">
          <mxGeometry x="450" y="120" width="120" height="60" as="geometry" />
        </mxCell>
        <mxCell id="2eAAJyF8k7LBZb5_VXcL-12" style="edgeStyle=orthogonalEdgeStyle;rounded=0;orthogonalLoop=1;jettySize=auto;html=1;exitX=1;exitY=0.5;exitDx=0;exitDy=0;" edge="1" parent="WIyWlLk6GJQsqaUBKTNV-1" source="2eAAJyF8k7LBZb5_VXcL-3" target="2eAAJyF8k7LBZb5_VXcL-10">
          <mxGeometry relative="1" as="geometry" />
        </mxCell>
        <mxCell id="2eAAJyF8k7LBZb5_VXcL-3" value="sequence weight(A)" style="rounded=1;whiteSpace=wrap;html=1;" vertex="1" parent="WIyWlLk6GJQsqaUBKTNV-1">
          <mxGeometry x="620" y="120" width="120" height="60" as="geometry" />
        </mxCell>
        <mxCell id="2eAAJyF8k7LBZb5_VXcL-8" style="edgeStyle=orthogonalEdgeStyle;rounded=0;orthogonalLoop=1;jettySize=auto;html=1;exitX=1;exitY=0.5;exitDx=0;exitDy=0;strokeColor=#6c8ebf;fillColor=#dae8fc;" edge="1" parent="WIyWlLk6GJQsqaUBKTNV-1" source="2eAAJyF8k7LBZb5_VXcL-5" target="2eAAJyF8k7LBZb5_VXcL-7">
          <mxGeometry relative="1" as="geometry" />
        </mxCell>
        <mxCell id="2eAAJyF8k7LBZb5_VXcL-5" value="self-attention 的 weight计算" style="rounded=1;whiteSpace=wrap;html=1;strokeColor=#6c8ebf;fillColor=#dae8fc;" vertex="1" parent="WIyWlLk6GJQsqaUBKTNV-1">
          <mxGeometry x="380" y="210" width="120" height="60" as="geometry" />
        </mxCell>
        <mxCell id="2eAAJyF8k7LBZb5_VXcL-9" style="edgeStyle=orthogonalEdgeStyle;rounded=0;orthogonalLoop=1;jettySize=auto;html=1;exitX=1;exitY=0.5;exitDx=0;exitDy=0;entryX=0.5;entryY=1;entryDx=0;entryDy=0;strokeColor=#6c8ebf;fillColor=#dae8fc;" edge="1" parent="WIyWlLk6GJQsqaUBKTNV-1" source="2eAAJyF8k7LBZb5_VXcL-7" target="2eAAJyF8k7LBZb5_VXcL-3">
          <mxGeometry relative="1" as="geometry" />
        </mxCell>
        <mxCell id="2eAAJyF8k7LBZb5_VXcL-7" value="加权求和" style="rounded=1;whiteSpace=wrap;html=1;strokeColor=#6c8ebf;fillColor=#dae8fc;" vertex="1" parent="WIyWlLk6GJQsqaUBKTNV-1">
          <mxGeometry x="520" y="210" width="120" height="60" as="geometry" />
        </mxCell>
        <mxCell id="2eAAJyF8k7LBZb5_VXcL-19" style="edgeStyle=orthogonalEdgeStyle;rounded=0;orthogonalLoop=1;jettySize=auto;html=1;exitX=1;exitY=0.5;exitDx=0;exitDy=0;fillColor=#d5e8d4;strokeColor=#82b366;" edge="1" parent="WIyWlLk6GJQsqaUBKTNV-1" source="2eAAJyF8k7LBZb5_VXcL-10">
          <mxGeometry relative="1" as="geometry">
            <mxPoint x="1010" y="150" as="targetPoint" />
          </mxGeometry>
        </mxCell>
        <mxCell id="2eAAJyF8k7LBZb5_VXcL-23" style="edgeStyle=orthogonalEdgeStyle;rounded=0;orthogonalLoop=1;jettySize=auto;html=1;exitX=0.5;exitY=1;exitDx=0;exitDy=0;entryX=0;entryY=0.5;entryDx=0;entryDy=0;fillColor=#dae8fc;strokeColor=#6c8ebf;" edge="1" parent="WIyWlLk6GJQsqaUBKTNV-1" source="2eAAJyF8k7LBZb5_VXcL-10" target="2eAAJyF8k7LBZb5_VXcL-21">
          <mxGeometry relative="1" as="geometry" />
        </mxCell>
        <mxCell id="2eAAJyF8k7LBZb5_VXcL-10" value="weighted sum user sequence（WX = X*A）" style="rounded=1;whiteSpace=wrap;html=1;" vertex="1" parent="WIyWlLk6GJQsqaUBKTNV-1">
          <mxGeometry x="800" y="120" width="120" height="60" as="geometry" />
        </mxCell>
        <mxCell id="2eAAJyF8k7LBZb5_VXcL-25" style="edgeStyle=orthogonalEdgeStyle;rounded=0;orthogonalLoop=1;jettySize=auto;html=1;exitX=1;exitY=0.5;exitDx=0;exitDy=0;entryX=0;entryY=0.5;entryDx=0;entryDy=0;fillColor=#d5e8d4;strokeColor=#82b366;" edge="1" parent="WIyWlLk6GJQsqaUBKTNV-1" source="2eAAJyF8k7LBZb5_VXcL-20" target="2eAAJyF8k7LBZb5_VXcL-24">
          <mxGeometry relative="1" as="geometry" />
        </mxCell>
        <mxCell id="2eAAJyF8k7LBZb5_VXcL-20" value="C * (WX)&lt;sup&gt;T&lt;/sup&gt;" style="rounded=1;whiteSpace=wrap;html=1;fillColor=#d5e8d4;strokeColor=#82b366;" vertex="1" parent="WIyWlLk6GJQsqaUBKTNV-1">
          <mxGeometry x="1010" y="120" width="120" height="60" as="geometry" />
        </mxCell>
        <mxCell id="2eAAJyF8k7LBZb5_VXcL-26" style="edgeStyle=orthogonalEdgeStyle;rounded=0;orthogonalLoop=1;jettySize=auto;html=1;exitX=1;exitY=0.5;exitDx=0;exitDy=0;entryX=0.5;entryY=1;entryDx=0;entryDy=0;fillColor=#dae8fc;strokeColor=#6c8ebf;" edge="1" parent="WIyWlLk6GJQsqaUBKTNV-1" source="2eAAJyF8k7LBZb5_VXcL-21" target="2eAAJyF8k7LBZb5_VXcL-24">
          <mxGeometry relative="1" as="geometry" />
        </mxCell>
        <mxCell id="2eAAJyF8k7LBZb5_VXcL-21" value="(C - WX)&lt;sup&gt;2&lt;/sup&gt;" style="rounded=1;whiteSpace=wrap;html=1;fillColor=#dae8fc;strokeColor=#6c8ebf;" vertex="1" parent="WIyWlLk6GJQsqaUBKTNV-1">
          <mxGeometry x="1010" y="210" width="120" height="60" as="geometry" />
        </mxCell>
        <mxCell id="2eAAJyF8k7LBZb5_VXcL-28" style="edgeStyle=orthogonalEdgeStyle;rounded=0;orthogonalLoop=1;jettySize=auto;html=1;exitX=1;exitY=0.5;exitDx=0;exitDy=0;entryX=0.5;entryY=0;entryDx=0;entryDy=0;" edge="1" parent="WIyWlLk6GJQsqaUBKTNV-1" source="2eAAJyF8k7LBZb5_VXcL-24" target="2eAAJyF8k7LBZb5_VXcL-27">
          <mxGeometry relative="1" as="geometry">
            <Array as="points">
              <mxPoint x="1360" y="150" />
              <mxPoint x="1360" y="290" />
              <mxPoint x="350" y="290" />
            </Array>
          </mxGeometry>
        </mxCell>
        <mxCell id="2eAAJyF8k7LBZb5_VXcL-24" value="top-K activated concept" style="rounded=1;whiteSpace=wrap;html=1;" vertex="1" parent="WIyWlLk6GJQsqaUBKTNV-1">
          <mxGeometry x="1220" y="120" width="120" height="60" as="geometry" />
        </mxCell>
        <mxCell id="2eAAJyF8k7LBZb5_VXcL-31" style="edgeStyle=orthogonalEdgeStyle;rounded=0;orthogonalLoop=1;jettySize=auto;html=1;exitX=1;exitY=0.5;exitDx=0;exitDy=0;" edge="1" parent="WIyWlLk6GJQsqaUBKTNV-1" source="2eAAJyF8k7LBZb5_VXcL-27">
          <mxGeometry relative="1" as="geometry">
            <mxPoint x="510" y="370" as="targetPoint" />
          </mxGeometry>
        </mxCell>
        <mxCell id="2eAAJyF8k7LBZb5_VXcL-27" value="接上文" style="rounded=1;whiteSpace=wrap;html=1;" vertex="1" parent="WIyWlLk6GJQsqaUBKTNV-1">
          <mxGeometry x="290" y="340" width="120" height="60" as="geometry" />
        </mxCell>
        <mxCell id="2eAAJyF8k7LBZb5_VXcL-34" style="edgeStyle=orthogonalEdgeStyle;rounded=0;orthogonalLoop=1;jettySize=auto;html=1;exitX=1;exitY=0.5;exitDx=0;exitDy=0;" edge="1" parent="WIyWlLk6GJQsqaUBKTNV-1" source="2eAAJyF8k7LBZb5_VXcL-32">
          <mxGeometry relative="1" as="geometry">
            <mxPoint x="740" y="370" as="targetPoint" />
          </mxGeometry>
        </mxCell>
        <mxCell id="2eAAJyF8k7LBZb5_VXcL-32" value="（C-X）&lt;sup&gt;2&lt;/sup&gt;" style="rounded=1;whiteSpace=wrap;html=1;" vertex="1" parent="WIyWlLk6GJQsqaUBKTNV-1">
          <mxGeometry x="510" y="340" width="160" height="60" as="geometry" />
        </mxCell>
        <mxCell id="2eAAJyF8k7LBZb5_VXcL-36" style="edgeStyle=orthogonalEdgeStyle;rounded=0;orthogonalLoop=1;jettySize=auto;html=1;exitX=1;exitY=0.5;exitDx=0;exitDy=0;" edge="1" parent="WIyWlLk6GJQsqaUBKTNV-1" source="2eAAJyF8k7LBZb5_VXcL-35">
          <mxGeometry relative="1" as="geometry">
            <mxPoint x="940" y="370" as="targetPoint" />
          </mxGeometry>
        </mxCell>
        <mxCell id="2eAAJyF8k7LBZb5_VXcL-35" value="softmax" style="rounded=1;whiteSpace=wrap;html=1;" vertex="1" parent="WIyWlLk6GJQsqaUBKTNV-1">
          <mxGeometry x="740" y="340" width="120" height="60" as="geometry" />
        </mxCell>
        <mxCell id="2eAAJyF8k7LBZb5_VXcL-38" style="edgeStyle=orthogonalEdgeStyle;rounded=0;orthogonalLoop=1;jettySize=auto;html=1;exitX=1;exitY=0.5;exitDx=0;exitDy=0;" edge="1" parent="WIyWlLk6GJQsqaUBKTNV-1" source="2eAAJyF8k7LBZb5_VXcL-37">
          <mxGeometry relative="1" as="geometry">
            <mxPoint x="1150" y="370" as="targetPoint" />
          </mxGeometry>
        </mxCell>
        <mxCell id="2eAAJyF8k7LBZb5_VXcL-37" value="各C对X的重要性占比" style="rounded=1;whiteSpace=wrap;html=1;" vertex="1" parent="WIyWlLk6GJQsqaUBKTNV-1">
          <mxGeometry x="940" y="340" width="120" height="60" as="geometry" />
        </mxCell>
        <mxCell id="2eAAJyF8k7LBZb5_VXcL-41" style="edgeStyle=orthogonalEdgeStyle;rounded=0;orthogonalLoop=1;jettySize=auto;html=1;exitX=1;exitY=0.5;exitDx=0;exitDy=0;" edge="1" parent="WIyWlLk6GJQsqaUBKTNV-1" source="2eAAJyF8k7LBZb5_VXcL-39" target="2eAAJyF8k7LBZb5_VXcL-40">
          <mxGeometry relative="1" as="geometry" />
        </mxCell>
        <mxCell id="2eAAJyF8k7LBZb5_VXcL-39" value="按不同C对X进行weighted sum" style="rounded=1;whiteSpace=wrap;html=1;" vertex="1" parent="WIyWlLk6GJQsqaUBKTNV-1">
          <mxGeometry x="1150" y="340" width="120" height="60" as="geometry" />
        </mxCell>
        <mxCell id="2eAAJyF8k7LBZb5_VXcL-42" style="edgeStyle=orthogonalEdgeStyle;rounded=0;orthogonalLoop=1;jettySize=auto;html=1;exitX=0.5;exitY=1;exitDx=0;exitDy=0;" edge="1" parent="WIyWlLk6GJQsqaUBKTNV-1" source="2eAAJyF8k7LBZb5_VXcL-40">
          <mxGeometry relative="1" as="geometry">
            <mxPoint x="350" y="480" as="targetPoint" />
          </mxGeometry>
        </mxCell>
        <mxCell id="2eAAJyF8k7LBZb5_VXcL-40" value="user interest（UI）" style="rounded=1;whiteSpace=wrap;html=1;" vertex="1" parent="WIyWlLk6GJQsqaUBKTNV-1">
          <mxGeometry x="1370" y="340" width="120" height="60" as="geometry" />
        </mxCell>
        <mxCell id="2eAAJyF8k7LBZb5_VXcL-60" style="edgeStyle=orthogonalEdgeStyle;rounded=0;orthogonalLoop=1;jettySize=auto;html=1;exitX=1;exitY=0.5;exitDx=0;exitDy=0;entryX=0;entryY=0.5;entryDx=0;entryDy=0;fillColor=#dae8fc;strokeColor=#6c8ebf;" edge="1" parent="WIyWlLk6GJQsqaUBKTNV-1" target="2eAAJyF8k7LBZb5_VXcL-46">
          <mxGeometry relative="1" as="geometry">
            <mxPoint x="410" y="619" as="sourcePoint" />
          </mxGeometry>
        </mxCell>
        <mxCell id="2eAAJyF8k7LBZb5_VXcL-61" style="edgeStyle=orthogonalEdgeStyle;rounded=0;orthogonalLoop=1;jettySize=auto;html=1;exitX=1;exitY=0.5;exitDx=0;exitDy=0;entryX=0;entryY=0.5;entryDx=0;entryDy=0;fillColor=#dae8fc;strokeColor=#6c8ebf;" edge="1" parent="WIyWlLk6GJQsqaUBKTNV-1" target="2eAAJyF8k7LBZb5_VXcL-47">
          <mxGeometry relative="1" as="geometry">
            <mxPoint x="410" y="619" as="sourcePoint" />
          </mxGeometry>
        </mxCell>
        <mxCell id="2eAAJyF8k7LBZb5_VXcL-62" style="edgeStyle=orthogonalEdgeStyle;rounded=0;orthogonalLoop=1;jettySize=auto;html=1;exitX=1;exitY=0.5;exitDx=0;exitDy=0;entryX=0;entryY=0.5;entryDx=0;entryDy=0;fillColor=#dae8fc;strokeColor=#6c8ebf;" edge="1" parent="WIyWlLk6GJQsqaUBKTNV-1" target="2eAAJyF8k7LBZb5_VXcL-49">
          <mxGeometry relative="1" as="geometry">
            <mxPoint x="410" y="619" as="sourcePoint" />
          </mxGeometry>
        </mxCell>
        <mxCell id="2eAAJyF8k7LBZb5_VXcL-43" value="接上文" style="rounded=1;whiteSpace=wrap;html=1;" vertex="1" parent="WIyWlLk6GJQsqaUBKTNV-1">
          <mxGeometry x="290" y="590" width="120" height="60" as="geometry" />
        </mxCell>
        <mxCell id="2eAAJyF8k7LBZb5_VXcL-56" style="edgeStyle=orthogonalEdgeStyle;rounded=0;orthogonalLoop=1;jettySize=auto;html=1;exitX=1;exitY=0.5;exitDx=0;exitDy=0;entryX=0;entryY=0.5;entryDx=0;entryDy=0;fillColor=#dae8fc;strokeColor=#6c8ebf;" edge="1" parent="WIyWlLk6GJQsqaUBKTNV-1" source="2eAAJyF8k7LBZb5_VXcL-46" target="2eAAJyF8k7LBZb5_VXcL-55">
          <mxGeometry relative="1" as="geometry" />
        </mxCell>
        <mxCell id="2eAAJyF8k7LBZb5_VXcL-46" value="MLP" style="rounded=1;whiteSpace=wrap;html=1;fillColor=#dae8fc;strokeColor=#6c8ebf;" vertex="1" parent="WIyWlLk6GJQsqaUBKTNV-1">
          <mxGeometry x="520" y="510" width="120" height="60" as="geometry" />
        </mxCell>
        <mxCell id="2eAAJyF8k7LBZb5_VXcL-57" style="edgeStyle=orthogonalEdgeStyle;rounded=0;orthogonalLoop=1;jettySize=auto;html=1;exitX=1;exitY=0.5;exitDx=0;exitDy=0;fillColor=#dae8fc;strokeColor=#6c8ebf;" edge="1" parent="WIyWlLk6GJQsqaUBKTNV-1" source="2eAAJyF8k7LBZb5_VXcL-47">
          <mxGeometry relative="1" as="geometry">
            <mxPoint x="790" y="620" as="targetPoint" />
          </mxGeometry>
        </mxCell>
        <mxCell id="2eAAJyF8k7LBZb5_VXcL-47" value="self attention" style="rounded=1;whiteSpace=wrap;html=1;fillColor=#dae8fc;strokeColor=#6c8ebf;" vertex="1" parent="WIyWlLk6GJQsqaUBKTNV-1">
          <mxGeometry x="520" y="590" width="120" height="60" as="geometry" />
        </mxCell>
        <mxCell id="2eAAJyF8k7LBZb5_VXcL-59" style="edgeStyle=orthogonalEdgeStyle;rounded=0;orthogonalLoop=1;jettySize=auto;html=1;exitX=1;exitY=0.5;exitDx=0;exitDy=0;entryX=0;entryY=0.5;entryDx=0;entryDy=0;fillColor=#dae8fc;strokeColor=#6c8ebf;" edge="1" parent="WIyWlLk6GJQsqaUBKTNV-1" source="2eAAJyF8k7LBZb5_VXcL-49" target="2eAAJyF8k7LBZb5_VXcL-55">
          <mxGeometry relative="1" as="geometry" />
        </mxCell>
        <mxCell id="2eAAJyF8k7LBZb5_VXcL-49" value="attention，C&lt;sup&gt;u&lt;/sup&gt;作为query，UI作为KEY和value" style="rounded=1;whiteSpace=wrap;html=1;fillColor=#dae8fc;strokeColor=#6c8ebf;" vertex="1" parent="WIyWlLk6GJQsqaUBKTNV-1">
          <mxGeometry x="520" y="680" width="120" height="60" as="geometry" />
        </mxCell>
        <mxCell id="2eAAJyF8k7LBZb5_VXcL-54" style="edgeStyle=orthogonalEdgeStyle;rounded=0;orthogonalLoop=1;jettySize=auto;html=1;exitX=0.5;exitY=1;exitDx=0;exitDy=0;entryX=0.5;entryY=0;entryDx=0;entryDy=0;" edge="1" parent="WIyWlLk6GJQsqaUBKTNV-1" source="2eAAJyF8k7LBZb5_VXcL-53" target="2eAAJyF8k7LBZb5_VXcL-43">
          <mxGeometry relative="1" as="geometry" />
        </mxCell>
        <mxCell id="2eAAJyF8k7LBZb5_VXcL-53" value="C&lt;sup&gt;u&lt;/sup&gt;=α*C α为C对X重要性占比" style="rounded=1;whiteSpace=wrap;html=1;" vertex="1" parent="WIyWlLk6GJQsqaUBKTNV-1">
          <mxGeometry x="290" y="480" width="120" height="60" as="geometry" />
        </mxCell>
        <mxCell id="2eAAJyF8k7LBZb5_VXcL-55" value="User representation" style="rounded=1;whiteSpace=wrap;html=1;" vertex="1" parent="WIyWlLk6GJQsqaUBKTNV-1">
          <mxGeometry x="790" y="590" width="120" height="60" as="geometry" />
        </mxCell>
        <mxCell id="2eAAJyF8k7LBZb5_VXcL-66" style="edgeStyle=orthogonalEdgeStyle;rounded=0;orthogonalLoop=1;jettySize=auto;html=1;exitX=1;exitY=0.5;exitDx=0;exitDy=0;entryX=0;entryY=0.5;entryDx=0;entryDy=0;" edge="1" parent="WIyWlLk6GJQsqaUBKTNV-1" source="2eAAJyF8k7LBZb5_VXcL-63" target="2eAAJyF8k7LBZb5_VXcL-64">
          <mxGeometry relative="1" as="geometry" />
        </mxCell>
        <mxCell id="2eAAJyF8k7LBZb5_VXcL-68" style="edgeStyle=orthogonalEdgeStyle;rounded=0;orthogonalLoop=1;jettySize=auto;html=1;exitX=1;exitY=0.5;exitDx=0;exitDy=0;entryX=0;entryY=0.5;entryDx=0;entryDy=0;" edge="1" parent="WIyWlLk6GJQsqaUBKTNV-1" source="2eAAJyF8k7LBZb5_VXcL-63" target="2eAAJyF8k7LBZb5_VXcL-65">
          <mxGeometry relative="1" as="geometry" />
        </mxCell>
        <mxCell id="2eAAJyF8k7LBZb5_VXcL-76" style="edgeStyle=orthogonalEdgeStyle;rounded=0;orthogonalLoop=1;jettySize=auto;html=1;exitX=0.5;exitY=0;exitDx=0;exitDy=0;entryX=0;entryY=0.5;entryDx=0;entryDy=0;dashed=1;" edge="1" parent="WIyWlLk6GJQsqaUBKTNV-1" source="2eAAJyF8k7LBZb5_VXcL-63" target="2eAAJyF8k7LBZb5_VXcL-75">
          <mxGeometry relative="1" as="geometry" />
        </mxCell>
        <mxCell id="2eAAJyF8k7LBZb5_VXcL-63" value="item" style="rounded=1;whiteSpace=wrap;html=1;" vertex="1" parent="WIyWlLk6GJQsqaUBKTNV-1">
          <mxGeometry x="290" y="1060" width="120" height="60" as="geometry" />
        </mxCell>
        <mxCell id="2eAAJyF8k7LBZb5_VXcL-69" style="edgeStyle=orthogonalEdgeStyle;rounded=0;orthogonalLoop=1;jettySize=auto;html=1;exitX=1;exitY=0.5;exitDx=0;exitDy=0;" edge="1" parent="WIyWlLk6GJQsqaUBKTNV-1" source="2eAAJyF8k7LBZb5_VXcL-64">
          <mxGeometry relative="1" as="geometry">
            <mxPoint x="690" y="1030" as="targetPoint" />
          </mxGeometry>
        </mxCell>
        <mxCell id="2eAAJyF8k7LBZb5_VXcL-74" style="edgeStyle=orthogonalEdgeStyle;rounded=0;orthogonalLoop=1;jettySize=auto;html=1;exitX=0.5;exitY=0;exitDx=0;exitDy=0;entryX=0;entryY=0.5;entryDx=0;entryDy=0;" edge="1" parent="WIyWlLk6GJQsqaUBKTNV-1" source="2eAAJyF8k7LBZb5_VXcL-64" target="2eAAJyF8k7LBZb5_VXcL-73">
          <mxGeometry relative="1" as="geometry" />
        </mxCell>
        <mxCell id="2eAAJyF8k7LBZb5_VXcL-64" value="dynamic attribute" style="rounded=1;whiteSpace=wrap;html=1;" vertex="1" parent="WIyWlLk6GJQsqaUBKTNV-1">
          <mxGeometry x="510" y="1000" width="120" height="60" as="geometry" />
        </mxCell>
        <mxCell id="2eAAJyF8k7LBZb5_VXcL-91" style="edgeStyle=orthogonalEdgeStyle;rounded=0;orthogonalLoop=1;jettySize=auto;html=1;exitX=1;exitY=0.5;exitDx=0;exitDy=0;" edge="1" parent="WIyWlLk6GJQsqaUBKTNV-1" source="2eAAJyF8k7LBZb5_VXcL-65">
          <mxGeometry relative="1" as="geometry">
            <mxPoint x="690" y="1160" as="targetPoint" />
          </mxGeometry>
        </mxCell>
        <mxCell id="2eAAJyF8k7LBZb5_VXcL-117" style="edgeStyle=orthogonalEdgeStyle;rounded=0;orthogonalLoop=1;jettySize=auto;html=1;exitX=0.5;exitY=1;exitDx=0;exitDy=0;entryX=0;entryY=0.5;entryDx=0;entryDy=0;" edge="1" parent="WIyWlLk6GJQsqaUBKTNV-1" source="2eAAJyF8k7LBZb5_VXcL-65" target="2eAAJyF8k7LBZb5_VXcL-116">
          <mxGeometry relative="1" as="geometry" />
        </mxCell>
        <mxCell id="2eAAJyF8k7LBZb5_VXcL-65" value="statistic attribute" style="rounded=1;whiteSpace=wrap;html=1;" vertex="1" parent="WIyWlLk6GJQsqaUBKTNV-1">
          <mxGeometry x="510" y="1130" width="120" height="60" as="geometry" />
        </mxCell>
        <mxCell id="2eAAJyF8k7LBZb5_VXcL-71" style="edgeStyle=orthogonalEdgeStyle;rounded=0;orthogonalLoop=1;jettySize=auto;html=1;exitX=1;exitY=0.5;exitDx=0;exitDy=0;" edge="1" parent="WIyWlLk6GJQsqaUBKTNV-1" source="2eAAJyF8k7LBZb5_VXcL-70">
          <mxGeometry relative="1" as="geometry">
            <mxPoint x="880" y="1030" as="targetPoint" />
          </mxGeometry>
        </mxCell>
        <mxCell id="2eAAJyF8k7LBZb5_VXcL-70" value="extract attribute histroy（AH）" style="rounded=1;whiteSpace=wrap;html=1;" vertex="1" parent="WIyWlLk6GJQsqaUBKTNV-1">
          <mxGeometry x="690" y="1000" width="120" height="60" as="geometry" />
        </mxCell>
        <mxCell id="2eAAJyF8k7LBZb5_VXcL-79" style="edgeStyle=orthogonalEdgeStyle;rounded=0;orthogonalLoop=1;jettySize=auto;html=1;exitX=0.5;exitY=0;exitDx=0;exitDy=0;entryX=0.5;entryY=1;entryDx=0;entryDy=0;" edge="1" parent="WIyWlLk6GJQsqaUBKTNV-1" source="2eAAJyF8k7LBZb5_VXcL-72" target="2eAAJyF8k7LBZb5_VXcL-77">
          <mxGeometry relative="1" as="geometry" />
        </mxCell>
        <mxCell id="2eAAJyF8k7LBZb5_VXcL-72" value="GRU" style="rounded=1;whiteSpace=wrap;html=1;" vertex="1" parent="WIyWlLk6GJQsqaUBKTNV-1">
          <mxGeometry x="880" y="1000" width="120" height="60" as="geometry" />
        </mxCell>
        <mxCell id="2eAAJyF8k7LBZb5_VXcL-78" style="edgeStyle=orthogonalEdgeStyle;rounded=0;orthogonalLoop=1;jettySize=auto;html=1;exitX=1;exitY=0.5;exitDx=0;exitDy=0;" edge="1" parent="WIyWlLk6GJQsqaUBKTNV-1" source="2eAAJyF8k7LBZb5_VXcL-73" target="2eAAJyF8k7LBZb5_VXcL-77">
          <mxGeometry relative="1" as="geometry" />
        </mxCell>
        <mxCell id="2eAAJyF8k7LBZb5_VXcL-73" value="静态特性（DSA）" style="rounded=1;whiteSpace=wrap;html=1;" vertex="1" parent="WIyWlLk6GJQsqaUBKTNV-1">
          <mxGeometry x="690" y="870" width="120" height="60" as="geometry" />
        </mxCell>
        <mxCell id="2eAAJyF8k7LBZb5_VXcL-75" value="frequency？" style="rounded=1;whiteSpace=wrap;html=1;" vertex="1" parent="WIyWlLk6GJQsqaUBKTNV-1">
          <mxGeometry x="690" y="780" width="120" height="60" as="geometry" />
        </mxCell>
        <mxCell id="2eAAJyF8k7LBZb5_VXcL-81" style="edgeStyle=orthogonalEdgeStyle;rounded=0;orthogonalLoop=1;jettySize=auto;html=1;exitX=1;exitY=0.5;exitDx=0;exitDy=0;" edge="1" parent="WIyWlLk6GJQsqaUBKTNV-1" source="2eAAJyF8k7LBZb5_VXcL-77" target="2eAAJyF8k7LBZb5_VXcL-80">
          <mxGeometry relative="1" as="geometry" />
        </mxCell>
        <mxCell id="2eAAJyF8k7LBZb5_VXcL-77" value="merge net" style="rounded=1;whiteSpace=wrap;html=1;" vertex="1" parent="WIyWlLk6GJQsqaUBKTNV-1">
          <mxGeometry x="880" y="870" width="120" height="60" as="geometry" />
        </mxCell>
        <mxCell id="2eAAJyF8k7LBZb5_VXcL-82" style="edgeStyle=orthogonalEdgeStyle;rounded=0;orthogonalLoop=1;jettySize=auto;html=1;exitX=1;exitY=0.5;exitDx=0;exitDy=0;" edge="1" parent="WIyWlLk6GJQsqaUBKTNV-1" source="2eAAJyF8k7LBZb5_VXcL-80">
          <mxGeometry relative="1" as="geometry">
            <mxPoint x="1250" y="900" as="targetPoint" />
          </mxGeometry>
        </mxCell>
        <mxCell id="2eAAJyF8k7LBZb5_VXcL-94" style="edgeStyle=orthogonalEdgeStyle;rounded=0;orthogonalLoop=1;jettySize=auto;html=1;exitX=0.5;exitY=1;exitDx=0;exitDy=0;entryX=0.5;entryY=0;entryDx=0;entryDy=0;dashed=1;" edge="1" parent="WIyWlLk6GJQsqaUBKTNV-1" source="2eAAJyF8k7LBZb5_VXcL-80" target="2eAAJyF8k7LBZb5_VXcL-93">
          <mxGeometry relative="1" as="geometry" />
        </mxCell>
        <mxCell id="2eAAJyF8k7LBZb5_VXcL-80" value="dynamic attribute&amp;nbsp; value embedding" style="rounded=1;whiteSpace=wrap;html=1;" vertex="1" parent="WIyWlLk6GJQsqaUBKTNV-1">
          <mxGeometry x="1070" y="870" width="120" height="60" as="geometry" />
        </mxCell>
        <mxCell id="2eAAJyF8k7LBZb5_VXcL-84" style="edgeStyle=orthogonalEdgeStyle;rounded=0;orthogonalLoop=1;jettySize=auto;html=1;exitX=0.5;exitY=1;exitDx=0;exitDy=0;" edge="1" parent="WIyWlLk6GJQsqaUBKTNV-1" source="2eAAJyF8k7LBZb5_VXcL-83">
          <mxGeometry relative="1" as="geometry">
            <mxPoint x="1310" y="1000" as="targetPoint" />
          </mxGeometry>
        </mxCell>
        <mxCell id="2eAAJyF8k7LBZb5_VXcL-83" value="self-attention" style="rounded=1;whiteSpace=wrap;html=1;" vertex="1" parent="WIyWlLk6GJQsqaUBKTNV-1">
          <mxGeometry x="1250" y="870" width="120" height="60" as="geometry" />
        </mxCell>
        <mxCell id="2eAAJyF8k7LBZb5_VXcL-88" style="edgeStyle=orthogonalEdgeStyle;rounded=0;orthogonalLoop=1;jettySize=auto;html=1;exitX=1;exitY=0.5;exitDx=0;exitDy=0;entryX=0;entryY=0.5;entryDx=0;entryDy=0;" edge="1" parent="WIyWlLk6GJQsqaUBKTNV-1" source="2eAAJyF8k7LBZb5_VXcL-85" target="2eAAJyF8k7LBZb5_VXcL-86">
          <mxGeometry relative="1" as="geometry" />
        </mxCell>
        <mxCell id="2eAAJyF8k7LBZb5_VXcL-85" value="dynamic attribute embedding" style="rounded=1;whiteSpace=wrap;html=1;" vertex="1" parent="WIyWlLk6GJQsqaUBKTNV-1">
          <mxGeometry x="1250" y="1000" width="120" height="60" as="geometry" />
        </mxCell>
        <mxCell id="2eAAJyF8k7LBZb5_VXcL-90" style="edgeStyle=orthogonalEdgeStyle;rounded=0;orthogonalLoop=1;jettySize=auto;html=1;exitX=1;exitY=0.5;exitDx=0;exitDy=0;entryX=0;entryY=0.5;entryDx=0;entryDy=0;" edge="1" parent="WIyWlLk6GJQsqaUBKTNV-1" source="2eAAJyF8k7LBZb5_VXcL-86" target="2eAAJyF8k7LBZb5_VXcL-89">
          <mxGeometry relative="1" as="geometry" />
        </mxCell>
        <mxCell id="2eAAJyF8k7LBZb5_VXcL-86" value="concat" style="rounded=1;whiteSpace=wrap;html=1;" vertex="1" parent="WIyWlLk6GJQsqaUBKTNV-1">
          <mxGeometry x="1430" y="1000" width="120" height="60" as="geometry" />
        </mxCell>
        <mxCell id="2eAAJyF8k7LBZb5_VXcL-111" style="edgeStyle=orthogonalEdgeStyle;rounded=0;orthogonalLoop=1;jettySize=auto;html=1;exitX=1;exitY=0.5;exitDx=0;exitDy=0;entryX=0;entryY=0.5;entryDx=0;entryDy=0;" edge="1" parent="WIyWlLk6GJQsqaUBKTNV-1" source="2eAAJyF8k7LBZb5_VXcL-89" target="2eAAJyF8k7LBZb5_VXcL-110">
          <mxGeometry relative="1" as="geometry" />
        </mxCell>
        <mxCell id="2eAAJyF8k7LBZb5_VXcL-89" value="dynamic attribute total embedding" style="rounded=1;whiteSpace=wrap;html=1;" vertex="1" parent="WIyWlLk6GJQsqaUBKTNV-1">
          <mxGeometry x="1610" y="1000" width="120" height="60" as="geometry" />
        </mxCell>
        <mxCell id="2eAAJyF8k7LBZb5_VXcL-100" style="edgeStyle=orthogonalEdgeStyle;rounded=0;orthogonalLoop=1;jettySize=auto;html=1;exitX=1;exitY=0.5;exitDx=0;exitDy=0;" edge="1" parent="WIyWlLk6GJQsqaUBKTNV-1" source="2eAAJyF8k7LBZb5_VXcL-92">
          <mxGeometry relative="1" as="geometry">
            <mxPoint x="880" y="1160" as="targetPoint" />
          </mxGeometry>
        </mxCell>
        <mxCell id="2eAAJyF8k7LBZb5_VXcL-92" value="对非数字的静态属性，训练多个weight 矩阵" style="rounded=1;whiteSpace=wrap;html=1;" vertex="1" parent="WIyWlLk6GJQsqaUBKTNV-1">
          <mxGeometry x="690" y="1130" width="120" height="60" as="geometry" />
        </mxCell>
        <mxCell id="2eAAJyF8k7LBZb5_VXcL-95" style="edgeStyle=orthogonalEdgeStyle;rounded=0;orthogonalLoop=1;jettySize=auto;html=1;exitX=1;exitY=0.5;exitDx=0;exitDy=0;entryX=0;entryY=0.5;entryDx=0;entryDy=0;dashed=1;" edge="1" parent="WIyWlLk6GJQsqaUBKTNV-1" source="2eAAJyF8k7LBZb5_VXcL-93" target="2eAAJyF8k7LBZb5_VXcL-85">
          <mxGeometry relative="1" as="geometry" />
        </mxCell>
        <mxCell id="2eAAJyF8k7LBZb5_VXcL-93" value="利用user representation 做attention？" style="rounded=1;whiteSpace=wrap;html=1;dashed=1;" vertex="1" parent="WIyWlLk6GJQsqaUBKTNV-1">
          <mxGeometry x="1070" y="1000" width="120" height="60" as="geometry" />
        </mxCell>
        <mxCell id="2eAAJyF8k7LBZb5_VXcL-102" style="edgeStyle=orthogonalEdgeStyle;rounded=0;orthogonalLoop=1;jettySize=auto;html=1;exitX=1;exitY=0.5;exitDx=0;exitDy=0;entryX=0;entryY=0.5;entryDx=0;entryDy=0;" edge="1" parent="WIyWlLk6GJQsqaUBKTNV-1" source="2eAAJyF8k7LBZb5_VXcL-101" target="2eAAJyF8k7LBZb5_VXcL-103">
          <mxGeometry relative="1" as="geometry">
            <mxPoint x="1050" y="1160" as="targetPoint" />
          </mxGeometry>
        </mxCell>
        <mxCell id="2eAAJyF8k7LBZb5_VXcL-101" value="weighted sum" style="rounded=1;whiteSpace=wrap;html=1;" vertex="1" parent="WIyWlLk6GJQsqaUBKTNV-1">
          <mxGeometry x="880" y="1130" width="120" height="60" as="geometry" />
        </mxCell>
        <mxCell id="2eAAJyF8k7LBZb5_VXcL-104" style="edgeStyle=orthogonalEdgeStyle;rounded=0;orthogonalLoop=1;jettySize=auto;html=1;exitX=1;exitY=0.5;exitDx=0;exitDy=0;entryX=0;entryY=0.5;entryDx=0;entryDy=0;" edge="1" parent="WIyWlLk6GJQsqaUBKTNV-1" source="2eAAJyF8k7LBZb5_VXcL-103" target="2eAAJyF8k7LBZb5_VXcL-105">
          <mxGeometry relative="1" as="geometry">
            <mxPoint x="1420" y="1160" as="targetPoint" />
          </mxGeometry>
        </mxCell>
        <mxCell id="2eAAJyF8k7LBZb5_VXcL-103" value="statistic attribute&amp;nbsp; embedding" style="rounded=1;whiteSpace=wrap;html=1;" vertex="1" parent="WIyWlLk6GJQsqaUBKTNV-1">
          <mxGeometry x="1250" y="1130" width="120" height="60" as="geometry" />
        </mxCell>
        <mxCell id="2eAAJyF8k7LBZb5_VXcL-108" style="edgeStyle=orthogonalEdgeStyle;rounded=0;orthogonalLoop=1;jettySize=auto;html=1;exitX=1;exitY=0.5;exitDx=0;exitDy=0;" edge="1" parent="WIyWlLk6GJQsqaUBKTNV-1" source="2eAAJyF8k7LBZb5_VXcL-105" target="2eAAJyF8k7LBZb5_VXcL-107">
          <mxGeometry relative="1" as="geometry" />
        </mxCell>
        <mxCell id="2eAAJyF8k7LBZb5_VXcL-105" value="concat" style="rounded=1;whiteSpace=wrap;html=1;" vertex="1" parent="WIyWlLk6GJQsqaUBKTNV-1">
          <mxGeometry x="1430" y="1130" width="120" height="60" as="geometry" />
        </mxCell>
        <mxCell id="2eAAJyF8k7LBZb5_VXcL-113" style="edgeStyle=orthogonalEdgeStyle;rounded=0;orthogonalLoop=1;jettySize=auto;html=1;exitX=1;exitY=0.5;exitDx=0;exitDy=0;" edge="1" parent="WIyWlLk6GJQsqaUBKTNV-1" source="2eAAJyF8k7LBZb5_VXcL-107" target="2eAAJyF8k7LBZb5_VXcL-110">
          <mxGeometry relative="1" as="geometry" />
        </mxCell>
        <mxCell id="2eAAJyF8k7LBZb5_VXcL-107" value="statistic attribute total embedding" style="rounded=1;whiteSpace=wrap;html=1;" vertex="1" parent="WIyWlLk6GJQsqaUBKTNV-1">
          <mxGeometry x="1610" y="1130" width="120" height="60" as="geometry" />
        </mxCell>
        <mxCell id="2eAAJyF8k7LBZb5_VXcL-115" style="edgeStyle=orthogonalEdgeStyle;rounded=0;orthogonalLoop=1;jettySize=auto;html=1;exitX=1;exitY=0.5;exitDx=0;exitDy=0;entryX=0;entryY=0.5;entryDx=0;entryDy=0;" edge="1" parent="WIyWlLk6GJQsqaUBKTNV-1" source="2eAAJyF8k7LBZb5_VXcL-110" target="2eAAJyF8k7LBZb5_VXcL-114">
          <mxGeometry relative="1" as="geometry" />
        </mxCell>
        <mxCell id="2eAAJyF8k7LBZb5_VXcL-110" value="merge net" style="rounded=1;whiteSpace=wrap;html=1;" vertex="1" parent="WIyWlLk6GJQsqaUBKTNV-1">
          <mxGeometry x="1860" y="1070" width="120" height="60" as="geometry" />
        </mxCell>
        <mxCell id="2eAAJyF8k7LBZb5_VXcL-114" value="item total embedding" style="rounded=1;whiteSpace=wrap;html=1;" vertex="1" parent="WIyWlLk6GJQsqaUBKTNV-1">
          <mxGeometry x="2060" y="1070" width="120" height="60" as="geometry" />
        </mxCell>
        <mxCell id="2eAAJyF8k7LBZb5_VXcL-119" style="edgeStyle=orthogonalEdgeStyle;rounded=0;orthogonalLoop=1;jettySize=auto;html=1;exitX=1;exitY=0.5;exitDx=0;exitDy=0;entryX=0.5;entryY=1;entryDx=0;entryDy=0;" edge="1" parent="WIyWlLk6GJQsqaUBKTNV-1" source="2eAAJyF8k7LBZb5_VXcL-116" target="2eAAJyF8k7LBZb5_VXcL-101">
          <mxGeometry relative="1" as="geometry" />
        </mxCell>
        <mxCell id="2eAAJyF8k7LBZb5_VXcL-116" value="利用user representation 做attention？" style="rounded=1;whiteSpace=wrap;html=1;dashed=1;" vertex="1" parent="WIyWlLk6GJQsqaUBKTNV-1">
          <mxGeometry x="690" y="1220" width="120" height="60" as="geometry" />
        </mxCell>
      </root>
    </mxGraphModel>
  </diagram>
</mxfile>
